<svg width="55" height="55" viewBox="0 0 55 55" fill="none" xmlns="http://www.w3.org/2000/svg">
<path id="Combined Shape" fill-rule="evenodd" clip-rule="evenodd" d="M27.5 0C42.6878 0 55 12.3122 55 27.5C55 42.6878 42.6878 55 27.5 55C12.3122 55 0 42.6878 0 27.5C0 12.3122 12.3122 0 27.5 0ZM27.5 5C15.0736 5 5 15.0736 5 27.5C5 39.9264 15.0736 50 27.5 50C39.9264 50 50 39.9264 50 27.5C50 15.0736 39.9264 5 27.5 5ZM39.3794 35.8439C40.3557 36.8202 40.3557 38.4031 39.3794 39.3794C32.8186 45.9402 22.1814 45.9402 15.6206 39.3794C9.0598 32.8186 9.0598 22.1814 15.6206 15.6206C22.1814 9.0598 32.8186 9.0598 39.3794 15.6206C40.3557 16.5969 40.3557 18.1798 39.3794 19.1561C38.4031 20.1325 36.8202 20.1325 35.8439 19.1561C31.2357 14.548 23.7643 14.548 19.1561 19.1561C14.548 23.7643 14.548 31.2357 19.1561 35.8439C23.7643 40.452 31.2357 40.452 35.8439 35.8439C36.8202 34.8675 38.4031 34.8675 39.3794 35.8439Z" fill="#26BBA4"/>
</svg>
