<svg width="120" height="24" viewBox="0 0 120 24" fill="none" xmlns="http://www.w3.org/2000/svg">
<g id="Group 20">
<path id="Path" d="M22.675 0H1.325C0.593 0 0 0.593 0 1.325V22.676C0 23.407 0.593 24 1.325 24H12.82V14.706H9.692V11.084H12.82V8.413C12.82 5.313 14.713 3.625 17.479 3.625C18.804 3.625 19.942 3.724 20.274 3.768V7.008L18.356 7.009C16.852 7.009 16.561 7.724 16.561 8.772V11.085H20.148L19.681 14.707H16.561V24H22.677C23.407 24 24 23.407 24 22.675V1.325C24 0.593 23.407 0 22.675 0Z" fill="#4C545C"/>
<path id="Shape" fill-rule="evenodd" clip-rule="evenodd" d="M108 0C104.741 0 104.333 0.014 103.053 0.072C98.695 0.272 96.273 2.69 96.073 7.052C96.014 8.333 96 8.741 96 12C96 15.259 96.014 15.668 96.072 16.948C96.272 21.306 98.69 23.728 103.052 23.928C104.333 23.986 104.741 24 108 24C111.259 24 111.668 23.986 112.948 23.928C117.302 23.728 119.73 21.31 119.927 16.948C119.986 15.668 120 15.259 120 12C120 8.741 119.986 8.333 119.928 7.053C119.732 2.699 117.311 0.273 112.949 0.073C111.668 0.014 111.259 0 108 0ZM108 2.163C111.204 2.163 111.584 2.175 112.85 2.233C116.102 2.381 117.621 3.924 117.769 7.152C117.827 8.417 117.838 8.797 117.838 12.001C117.838 15.206 117.826 15.585 117.769 16.85C117.62 20.075 116.105 21.621 112.85 21.769C111.584 21.827 111.206 21.839 108 21.839C104.796 21.839 104.416 21.827 103.151 21.769C99.891 21.62 98.38 20.07 98.232 16.849C98.174 15.584 98.162 15.205 98.162 12C98.162 8.796 98.175 8.417 98.232 7.151C98.381 3.924 99.896 2.38 103.151 2.232C104.417 2.175 104.796 2.163 108 2.163ZM101.838 12C101.838 8.597 104.597 5.838 108 5.838C111.403 5.838 114.162 8.597 114.162 12C114.162 15.404 111.403 18.163 108 18.163C104.597 18.163 101.838 15.403 101.838 12ZM108 16C105.791 16 104 14.21 104 12C104 9.791 105.791 8 108 8C110.209 8 112 9.791 112 12C112 14.21 110.209 16 108 16ZM112.965 5.595C112.965 4.8 113.61 4.155 114.406 4.155C115.201 4.155 115.845 4.8 115.845 5.595C115.845 6.39 115.201 7.035 114.406 7.035C113.61 7.035 112.965 6.39 112.965 5.595Z" fill="#4C545C"/>
<path id="Path_2" d="M72 4.55705C71.117 4.94905 70.168 5.21305 69.172 5.33205C70.189 4.72305 70.97 3.75805 71.337 2.60805C70.386 3.17205 69.332 3.58205 68.21 3.80305C67.313 2.84605 66.032 2.24805 64.616 2.24805C61.437 2.24805 59.101 5.21405 59.819 8.29305C55.728 8.08805 52.1 6.12805 49.671 3.14905C48.381 5.36205 49.002 8.25705 51.194 9.72305C50.388 9.69705 49.628 9.47605 48.965 9.10705C48.911 11.388 50.546 13.522 52.914 13.997C52.221 14.185 51.462 14.229 50.69 14.081C51.316 16.037 53.134 17.46 55.29 17.5C53.22 19.123 50.612 19.848 48 19.54C50.179 20.937 52.768 21.752 55.548 21.752C64.69 21.752 69.855 14.031 69.543 7.10605C70.505 6.41105 71.34 5.54405 72 4.55705Z" fill="#4C545C"/>
</g>
</svg>
